<svg width="96" height="96" viewBox="0 0 96 96" fill="none" xmlns="http://www.w3.org/2000/svg">
	<path fill-rule="evenodd" clip-rule="evenodd" d="M83.4536 80.3585C91.2468 71.8247 96 60.4674 96 48C96 21.4903 74.5097 0 48 0C21.4903 0 0 21.4903 0 48C0 74.5097 21.4903 96 48 96C56.7854 96 65.0195 93.6398 72.1028 89.5188L64.6127 80.8839C60.3815 83.1887 55.2486 84.5648 49.6994 84.5648C35.5144 84.5648 24 75.6551 24 64.6469V18H38.5665V62.6861C39.1561 67.4678 43.8728 71.1142 49.6647 70.9766C55.4566 70.839 60.2081 66.9862 60.763 62.1701V18H75.3988V64.6469C75.3988 66.5046 75.0867 68.2934 74.4624 70.0134L83.4536 80.3585Z" fill="#9BA8BB"/>
</svg>
