<svg width="24" height="24" viewBox="0 0 24 24" xmlns="http://www.w3.org/2000/svg">
	<path fill-rule="evenodd" clip-rule="evenodd" d="M15.232 13.9211L21.3187 20.0078L20.025 21.2992L13.9383 15.2148C12.7172 16.157 11.2266 16.668 9.65625 16.668C7.77656 16.668 6.01172 15.9367 4.68516 14.6078C3.35859 13.2813 2.625 11.5141 2.625 9.63672C2.625 7.75703 3.35625 5.99219 4.68516 4.66563C6.01172 3.33906 7.77891 2.60547 9.65625 2.60547C11.5336 2.60547 13.3008 3.33672 14.6273 4.66563C15.9539 5.99453 16.6875 7.75703 16.6875 9.63672C16.6875 11.207 16.1766 12.7 15.232 13.9211ZM9.66122 14.9625C11.0628 14.9625 12.38 14.4164 13.3737 13.425C14.3651 12.4336 14.9112 11.1141 14.9112 9.71249C14.9112 8.31093 14.3651 6.99374 13.3737 5.99999C12.3823 5.00624 11.0628 4.46249 9.66122 4.46249C8.25966 4.46249 6.94247 5.00859 5.94872 5.99999C4.95732 6.9914 4.41122 8.31093 4.41122 9.71249C4.41122 11.1141 4.95732 12.4312 5.94872 13.425C6.94247 14.4164 8.25966 14.9625 9.66122 14.9625Z"/>
</svg>
