<svg width="24" height="24" viewBox="0 0 24 24" xmlns="http://www.w3.org/2000/svg">
	<path d="M17.25 5.25H14.3333C14.3333 4.64062 14.1024 4.11328 13.6406 3.66797C13.1788 3.22266 12.6319 3 12 3C11.3681 3 10.8212 3.22266 10.3594 3.66797C9.89757 4.11328 9.66667 4.64062 9.66667 5.25H6.75C6.26389 5.25 5.85069 5.41406 5.51042 5.74219C5.17014 6.07031 5 6.46875 5 6.9375V19.3125C5 19.7812 5.17014 20.1797 5.51042 20.5078C5.85069 20.8359 6.26389 21 6.75 21H17.25C17.7361 21 18.1493 20.8359 18.4896 20.5078C18.8299 20.1797 19 19.7812 19 19.3125V6.9375C19 6.46875 18.8299 6.07031 18.4896 5.74219C18.1493 5.41406 17.7361 5.25 17.25 5.25ZM12 4.40625C12.2431 4.40625 12.4497 4.48828 12.6198 4.65234C12.7899 4.81641 12.875 5.01562 12.875 5.25C12.875 5.48438 12.7899 5.68359 12.6198 5.84766C12.4497 6.01172 12.2431 6.09375 12 6.09375C11.7569 6.09375 11.5503 6.01172 11.3802 5.84766C11.2101 5.68359 11.125 5.48438 11.125 5.25C11.125 5.01562 11.2101 4.81641 11.3802 4.65234C11.5503 4.48828 11.7569 4.40625 12 4.40625ZM15.5 15.0938C15.5 15.1641 15.4635 15.2344 15.3906 15.3047C15.342 15.3516 15.2812 15.375 15.2083 15.375H13.1667V17.3438C13.1667 17.4141 13.1302 17.4844 13.0573 17.5547C13.0087 17.6016 12.9479 17.625 12.875 17.625H11.125C11.0521 17.625 10.9792 17.6016 10.9062 17.5547C10.8576 17.4844 10.8333 17.4141 10.8333 17.3438V15.375H8.79167C8.71875 15.375 8.64583 15.3516 8.57292 15.3047C8.52431 15.2344 8.5 15.1641 8.5 15.0938V13.4062C8.5 13.3359 8.52431 13.2773 8.57292 13.2305C8.64583 13.1602 8.71875 13.125 8.79167 13.125H10.8333V11.1562C10.8333 11.0859 10.8576 11.0273 10.9062 10.9805C10.9792 10.9102 11.0521 10.875 11.125 10.875H12.875C12.9479 10.875 13.0087 10.9102 13.0573 10.9805C13.1302 11.0273 13.1667 11.0859 13.1667 11.1562V13.125H15.2083C15.2812 13.125 15.342 13.1602 15.3906 13.2305C15.4635 13.2773 15.5 13.3359 15.5 13.4062V15.0938ZM15.5 8.34375C15.5 8.41406 15.4635 8.48438 15.3906 8.55469C15.342 8.60156 15.2812 8.625 15.2083 8.625H8.79167C8.71875 8.625 8.64583 8.60156 8.57292 8.55469C8.52431 8.48438 8.5 8.41406 8.5 8.34375V7.78125C8.5 7.71094 8.52431 7.65234 8.57292 7.60547C8.64583 7.53516 8.71875 7.5 8.79167 7.5H15.2083C15.2812 7.5 15.342 7.53516 15.3906 7.60547C15.4635 7.65234 15.5 7.71094 15.5 7.78125V8.34375Z"/>
</svg>
