<svg width="24" height="24" viewBox="0 0 24 24" xmlns="http://www.w3.org/2000/svg">
  <path d="M5 12.6105V11.3896C5 11.281 5.05185 11.2268 5.15556 11.2268H18.8444C18.9481 11.2268 19 11.281 19 11.3896V12.6105C19 12.719 18.9481 12.7733 18.8444 12.7733H5.15556C5.05185 12.7733 5 12.719 5 12.6105Z"/>
  <path d="M11.2611 18.8372V5.16279C11.2611 5.05426 11.3129 5 11.4166 5H12.5833C12.687 5 12.7389 5.05426 12.7389 5.16279V18.8372C12.7389 18.9457 12.687 19 12.5833 19H11.4166C11.3129 19 11.2611 18.9457 11.2611 18.8372Z"/>
</svg>
