<svg width="24" height="24" viewBox="0 0 24 24" xmlns="http://www.w3.org/2000/svg">
	<path d="M5.59309 8.28749L8.78 9.44312C9.3424 8.17297 9.99853 7.06939 10.7484 6.13239C11.5191 5.19539 12.3106 4.48743 13.123 4.00852C11.6441 3.94605 10.2172 4.22715 8.84249 4.85182C7.46775 5.45566 6.31171 6.34061 5.37438 7.50665C5.27023 7.63159 5.23899 7.77734 5.28065 7.94392C5.34314 8.1105 5.44728 8.22502 5.59309 8.28749ZM9.74858 9.78669L17.1847 12.504C17.5596 11.2547 17.7471 10.0678 17.7471 8.94339C17.7679 7.79817 17.6117 6.84034 17.2784 6.06992C16.966 5.2995 16.4869 4.79976 15.8412 4.57072C15.6329 4.48743 15.3934 4.44579 15.1226 4.44579C14.2269 4.44579 13.2792 4.94552 12.2794 5.94499C11.2795 6.92363 10.436 8.2042 9.74858 9.78669ZM18.2783 5.88252C18.4866 6.4239 18.6324 7.00692 18.7157 7.63159C18.8823 9.17243 18.6844 10.9111 18.122 12.8476L21.309 14.0032C21.4756 14.0657 21.6318 14.0553 21.7776 13.972C21.9234 13.8678 21.9963 13.7325 21.9963 13.5659C22.038 12.0667 21.7255 10.6404 21.059 9.28696C20.4133 7.93351 19.4864 6.7987 18.2783 5.88252ZM19.4968 18.0011H12.0294L14.0603 12.4103L12.1856 11.7544L9.9048 18.0011H2.49991C2.3541 18.0011 2.22912 18.0427 2.12498 18.126C2.04166 18.2301 2 18.355 2 18.5008V19.5003C2 19.646 2.04166 19.7605 2.12498 19.8438C2.22912 19.9479 2.3541 20 2.49991 20H19.4968C19.6426 20 19.7572 19.9479 19.8405 19.8438C19.9446 19.7605 19.9967 19.646 19.9967 19.5003V18.5008C19.9967 18.355 19.9446 18.2301 19.8405 18.126C19.7572 18.0427 19.6426 18.0011 19.4968 18.0011Z"/>
</svg>
