<svg width="24" height="24" viewBox="0 0 24 24" xmlns="http://www.w3.org/2000/svg">
	<path d="M8.3721 6.95832L12.8837 11.5764V7.54165C14.2791 7.80091 15.4496 8.50577 16.3954 9.65624C17.3411 10.8067 17.814 12.1435 17.814 13.6667C17.814 15.1898 17.3411 16.5266 16.3954 17.6771C15.4496 18.8275 14.2791 19.5324 12.8837 19.7917V21.8819C14.8372 21.6227 16.4806 20.7153 17.814 19.1597C19.1473 17.6042 19.814 15.7731 19.814 13.6667C19.814 11.5602 19.1473 9.72915 17.814 8.1736C16.4806 6.61804 14.8372 5.71063 12.8837 5.45138V2.24304L8.3721 6.95832ZM4.00001 12.6458H6.00001C6.15505 11.706 6.49613 10.8472 7.02327 10.0694L5.62792 8.6111C4.72869 9.81017 4.18606 11.1551 4.00001 12.6458ZM10.8837 19.7917C10.0155 19.6296 9.20931 19.2731 8.46513 18.7222L7.02327 20.2292C8.17055 21.1366 9.45737 21.6875 10.8837 21.8819V19.7917ZM7.02327 17.2639C6.49613 16.4861 6.15505 15.6273 6.00001 14.6875H4.00001C4.18606 16.1782 4.72869 17.5231 5.62792 18.7222L7.02327 17.2639Z"/>
</svg>
