<svg width="24" height="24" viewBox="0 0 24 24" xmlns="http://www.w3.org/2000/svg">
	<path d="M12 5C8.13393 5 5 8.13409 5 12C5 15.8661 8.13393 19 12 19C15.8661 19 19 15.8661 19 12C19 8.13409 15.8661 5 12 5ZM12 17.7273C8.83695 17.7273 6.27273 15.1632 6.27273 12C6.27273 8.83695 8.83695 6.27273 12 6.27273C15.163 6.27273 17.7273 8.83695 17.7273 12C17.7273 15.1632 15.163 17.7273 12 17.7273ZM14.359 13.4592C14.6075 13.7077 14.6075 14.1107 14.359 14.3592C14.2349 14.4832 14.0718 14.5455 13.9091 14.5455C13.7463 14.5456 13.5834 14.4834 13.4592 14.3592L11.5501 12.4501C11.4308 12.3307 11.3636 12.169 11.3636 12V8.18182C11.3636 7.83039 11.6486 7.54545 12 7.54545C12.3514 7.54545 12.6364 7.83039 12.6364 8.18182V11.7365L14.359 13.4592Z"/>
</svg>
