<svg width="24" height="24" viewBox="0 0 24 24" xmlns="http://www.w3.org/2000/svg">
	<path d="M5.53664 6.53099L6.531 5.53662C6.61939 5.44823 6.70778 5.44823 6.79617 5.53662L18.4634 17.2039C18.5518 17.2923 18.5518 17.3807 18.4634 17.469L17.4691 18.4634C17.3807 18.5518 17.2923 18.5518 17.2039 18.4634L5.53664 6.79616C5.44825 6.70777 5.44825 6.61938 5.53664 6.53099Z"/>
	<path d="M5.80177 16.9387L16.9387 5.80177C17.0271 5.71339 17.1155 5.71339 17.2039 5.80177L18.1982 6.79614C18.2866 6.88453 18.2866 6.97292 18.1982 7.06131L7.06131 18.1982C6.97292 18.2866 6.88453 18.2866 6.79614 18.1982L5.80177 17.2039C5.71338 17.1155 5.71338 17.0271 5.80177 16.9387Z"/>
</svg>
