<svg width="24" height="24" viewBox="0 0 24 24" xmlns="http://www.w3.org/2000/svg">
	<path fill-rule="evenodd" clip-rule="evenodd" d="M22.7906 14.1468L20.8286 13.7586C20.9409 13.1915 21 12.6036 21 12C21 11.3964 20.9409 10.8085 20.8286 10.2414L22.7906 9.85322C22.928 10.5475 23 11.2654 23 12C23 12.7346 22.928 13.4525 22.7906 14.1468ZM21.1472 5.88823L19.4853 7.00087C18.8276 6.01854 17.9815 5.17237 16.9991 4.51472L18.1118 2.85278C19.3113 3.65587 20.3441 4.68866 21.1472 5.88823ZM14.1468 1.20937C13.4525 1.07202 12.7346 1 12 1C11.2654 1 10.5475 1.07202 9.85322 1.20937L10.2414 3.17135C10.8085 3.05914 11.3964 3 12 3C12.6036 3 13.1915 3.05914 13.7586 3.17135L14.1468 1.20937ZM5.88823 2.85278L7.00087 4.51472C6.01854 5.17237 5.17237 6.01854 4.51472 7.00087L2.85278 5.88823C3.65587 4.68866 4.68866 3.65587 5.88823 2.85278ZM1.20937 9.85322C1.07202 10.5475 1 11.2654 1 12C1 12.7346 1.07202 13.4525 1.20937 14.1468L3.17135 13.7586C3.05914 13.1915 3 12.6036 3 12C3 11.3964 3.05914 10.8085 3.17135 10.2414L1.20937 9.85322ZM2.85278 18.1118L4.51472 16.9991C5.17237 17.9815 6.01854 18.8276 7.00087 19.4853L5.88823 21.1472C4.68866 20.3441 3.65587 19.3113 2.85278 18.1118ZM9.85322 22.7906L10.2414 20.8286C10.8085 20.9409 11.3964 21 12 21C12.6036 21 13.1915 20.9409 13.7586 20.8286L14.1468 22.7906C13.4525 22.928 12.7346 23 12 23C11.2654 23 10.5475 22.928 9.85322 22.7906ZM18.1118 21.1472L16.9991 19.4853C17.9815 18.8276 18.8276 17.9815 19.4853 16.9991L21.1472 18.1118C20.3441 19.3113 19.3113 20.3441 18.1118 21.1472Z"/>
</svg>
