<svg width="24" height="24" viewBox="0 0 24 24" xmlns="http://www.w3.org/2000/svg">
	<path d="M10.3235 4L14.1265 10.75H18.6679C18.9206 10.75 19.2666 10.8154 19.7225 10.9961C20.1596 11.1693 20.4846 11.3763 20.723 11.6017L20.7332 11.6113L20.7436 11.6206C20.9973 11.8473 21 11.9709 21 12C21 12.0291 20.9973 12.1527 20.7436 12.3794L20.7332 12.3887L20.723 12.3983C20.4846 12.6237 20.1596 12.8307 19.7225 13.0039C19.2666 13.1846 18.9206 13.25 18.6679 13.25H14.1265L10.3235 20H8.89118L10.7897 13.25H5.38723L3.74029 15.5H3.13574L4.15962 12L3.13574 8.5H3.74029L5.38723 10.75H10.7897L8.89118 4H10.3235Z"/>
</svg>
