<svg width="24" height="24" viewBox="0 0 24 24" xmlns="http://www.w3.org/2000/svg">
	<path d="M15.4419 6.95832L10.9302 11.5764V7.54165C9.53488 7.80091 8.36434 8.50577 7.4186 9.65624C6.47287 10.8067 6 12.1435 6 13.6667C6 15.1898 6.47287 16.5266 7.4186 17.6771C8.36434 18.8275 9.53488 19.5324 10.9302 19.7917V21.8819C8.97674 21.6227 7.33333 20.7153 6 19.1597C4.66667 17.6042 4 15.7731 4 13.6667C4 11.5602 4.66667 9.72915 6 8.1736C7.33333 6.61804 8.97674 5.71063 10.9302 5.45138V2.24304L15.4419 6.95832ZM19.814 12.6458H17.814C17.6589 11.706 17.3178 10.8472 16.7907 10.0694L18.186 8.6111C19.0853 9.81017 19.6279 11.1551 19.814 12.6458ZM12.9302 19.7917C13.7985 19.6296 14.6047 19.2731 15.3488 18.7222L16.7907 20.2292C15.6434 21.1366 14.3566 21.6875 12.9302 21.8819V19.7917ZM16.7907 17.2639C17.3178 16.4861 17.6589 15.6273 17.814 14.6875H19.814C19.6279 16.1782 19.0853 17.5231 18.186 18.7222L16.7907 17.2639Z"/>
</svg>
