<svg width="24" height="24" viewBox="0 0 24 24" xmlns="http://www.w3.org/2000/svg">
	<path d="M12 5C8.13393 5 5 8.13409 5 12C5 15.8661 8.13393 19 12 19C15.8661 19 19 15.8661 19 12C19 8.13409 15.8661 5 12 5ZM12 17.7273C8.83695 17.7273 6.27273 15.1632 6.27273 12C6.27273 8.83695 8.83695 6.27273 12 6.27273C15.163 6.27273 17.7273 8.83695 17.7273 12C17.7273 15.1632 15.163 17.7273 12 17.7273Z"/>
	<path d="M8.85714 11.6515L8.62898 11.8805C8.43449 12.0758 8.43469 12.3917 8.62943 12.5867L10.8964 14.857C11.0919 15.0528 11.4093 15.0526 11.6045 14.8565L15.9356 10.5075C16.1303 10.312 16.1298 9.99574 15.9345 9.80082L15.7011 9.56783C15.5055 9.37261 15.1886 9.37309 14.9936 9.56891L11.459 13.1182C11.342 13.2357 11.1518 13.236 11.0344 13.1188L9.56478 11.6506C9.36921 11.4552 9.05222 11.4556 8.85714 11.6515Z"/>
</svg>
