<svg width="24" height="24" viewBox="0 0 24 24" xmlns="http://www.w3.org/2000/svg">
	<path d="M12 2C6.47705 2 2 6.47727 2 12C2 17.523 6.47705 22 12 22C17.523 22 22 17.523 22 12C22 6.47727 17.523 2 12 2ZM12 20.1818C7.48136 20.1818 3.81818 16.5189 3.81818 12C3.81818 7.48136 7.48136 3.81818 12 3.81818C16.5186 3.81818 20.1818 7.48136 20.1818 12C20.1818 16.5189 16.5186 20.1818 12 20.1818ZM15.37 14.0845C15.725 14.4395 15.725 15.0152 15.37 15.3702C15.1927 15.5475 14.9598 15.6364 14.7273 15.6364C14.4948 15.6366 14.262 15.5477 14.0845 15.3702L11.3573 12.643C11.1868 12.4725 11.0909 12.2414 11.0909 12V6.54545C11.0909 6.04341 11.498 5.63636 12 5.63636C12.502 5.63636 12.9091 6.04341 12.9091 6.54545V11.6236L15.37 14.0845Z"/>
</svg>
