<svg width="24" height="24" viewBox="0 0 24 24" xmlns="http://www.w3.org/2000/svg">
	<path d="M7.10649 7.90517L7.90518 7.10647C7.97618 7.03548 8.04717 7.03548 8.11817 7.10647L17.4895 16.4778C17.5605 16.5488 17.5605 16.6198 17.4895 16.6908L16.6908 17.4895C16.6198 17.5605 16.5488 17.5605 16.4778 17.4895L7.10649 8.11815C7.0355 8.04716 7.0355 7.97616 7.10649 7.90517Z"/>
	<path d="M7.31938 16.2648L16.2647 7.31943C16.3357 7.24844 16.4067 7.24844 16.4777 7.31943L17.2764 8.11813C17.3474 8.18912 17.3474 8.26011 17.2764 8.33111L8.33106 17.2765C8.26006 17.3475 8.18907 17.3475 8.11808 17.2765L7.31938 16.4778C7.24839 16.4068 7.24839 16.3358 7.31938 16.2648Z"/>
</svg>
